<svg width="300px" height="260px" viewBox="0 0 300 260" xmlns="http://www.w3.org/2000/svg">
  <!-- Rysowanie szarego kwadratu -->
  <rect x="0" y="30" width="300" height="200" fill="none" stroke="none" />

  <!-- Obliczenia współrzędnych dla sześciokąta -->
  <polygon points="0,130 75,30 225,30 300,130 225,230 75,230" fill="none" stroke="white" />

  <!-- Lewy żółty romb -->
  <polygon points="0,130 75,30 150,130 75,230" fill="pink" />
  <text x="22" y="140" font-size="30" fill="white">wejście</text>

  <!-- Prawy pomarańczowy romb -->
  <polygon points="150,130 225,30 300,130 225,230" fill="orange" />
  <text x="277" y="140" font-size="30" fill="white" text-anchor="end">wyjście</text>

  <!-- Górny zielony trójkąt -->
  <polygon points="75,30 225,30 150,130" fill="lime" />
  <text x="150" y="60" font-size="30" fill="white" text-anchor="middle">DANE</text>

  <!-- Dolny niebieski trójkąt -->
  <polygon points="75,230 225,230 150,130" fill="blue" />
  <text x="150" y="223" font-size="26" fill="white" text-anchor="middle">LOGIKA</text>

  <!-- Linie przekątnych -->  
  <line x1="75" y1="30" x2="225" y2="230" stroke="white" />
  <line x1="225" y1="30" x2="75" y2="230" stroke="white" />
</svg>
